<svg width="135" height="203" viewBox="0 0 135 203" fill="none" xmlns="http://www.w3.org/2000/svg">
<path d="M48 102.785L96.864 85L133.118 184.607L102.188 175.646L84.2541 202.392L48 102.785Z" fill="#DE0000"/>
<path d="M38.2542 85L87.1182 102.785L50.864 202.392L32.9304 175.646L2.00001 184.607L38.2542 85Z" fill="#FF0000"/>
<g filter="url(#filter0_d_8_32)">
<mask id="mask0_8_32" style="mask-type:alpha" maskUnits="userSpaceOnUse" x="5" y="1" width="125" height="125">
<path d="M64.9461 2.11868C66.4271 0.890094 68.5729 0.890092 70.0539 2.11868L80.0059 10.3747C80.9038 11.1196 82.0822 11.4353 83.2323 11.2392L95.9789 9.06526C97.8758 8.74176 99.7341 9.8147 100.402 11.6192L104.893 23.745C105.298 24.8391 106.161 25.7017 107.255 26.1069L119.381 30.5976C121.185 31.2659 122.258 33.1242 121.935 35.0211L119.761 47.7677C119.565 48.9178 119.88 50.0962 120.625 50.9941L128.881 60.9461C130.11 62.4271 130.11 64.5729 128.881 66.0539L120.625 76.0059C119.88 76.9038 119.565 78.0822 119.761 79.2323L121.935 91.9789C122.258 93.8758 121.185 95.7341 119.381 96.4024L107.255 100.893C106.161 101.298 105.298 102.161 104.893 103.255L100.402 115.381C99.7341 117.185 97.8758 118.258 95.9789 117.935L83.2323 115.761C82.0822 115.565 80.9038 115.88 80.0059 116.625L70.0539 124.881C68.5729 126.11 66.4271 126.11 64.9461 124.881L54.9941 116.625C54.0962 115.88 52.9178 115.565 51.7677 115.761L39.0211 117.935C37.1242 118.258 35.2659 117.185 34.5976 115.381L30.1069 103.255C29.7017 102.161 28.8391 101.298 27.745 100.893L15.6192 96.4024C13.8147 95.7341 12.7418 93.8758 13.0653 91.9789L15.2392 79.2323C15.4353 78.0822 15.1196 76.9038 14.3747 76.0059L6.11868 66.0539C4.89009 64.5729 4.89009 62.4271 6.11868 60.9461L14.3747 50.9941C15.1196 50.0962 15.4353 48.9178 15.2392 47.7677L13.0653 35.0211C12.7418 33.1242 13.8147 31.2659 15.6192 30.5976L27.745 26.1069C28.8391 25.7017 29.7017 24.8391 30.1069 23.745L34.5976 11.6192C35.2659 9.8147 37.1242 8.74176 39.0211 9.06526L51.7677 11.2392C52.9178 11.4353 54.0962 11.1196 54.9941 10.3747L64.9461 2.11868Z" fill="#F7D65E"/>
</mask>
<g mask="url(#mask0_8_32)">
<path d="M64.9461 2.11868C66.4271 0.890094 68.5729 0.890092 70.0539 2.11868L80.0059 10.3747C80.9038 11.1196 82.0822 11.4353 83.2323 11.2392L95.9789 9.06526C97.8758 8.74176 99.7341 9.8147 100.402 11.6192L104.893 23.745C105.298 24.8391 106.161 25.7017 107.255 26.1069L119.381 30.5976C121.185 31.2659 122.258 33.1242 121.935 35.0211L119.761 47.7677C119.565 48.9178 119.88 50.0962 120.625 50.9941L128.881 60.9461C130.11 62.4271 130.11 64.5729 128.881 66.0539L120.625 76.0059C119.88 76.9038 119.565 78.0822 119.761 79.2323L121.935 91.9789C122.258 93.8758 121.185 95.7341 119.381 96.4024L107.255 100.893C106.161 101.298 105.298 102.161 104.893 103.255L100.402 115.381C99.7341 117.185 97.8758 118.258 95.9789 117.935L83.2323 115.761C82.0822 115.565 80.9038 115.88 80.0059 116.625L70.0539 124.881C68.5729 126.11 66.4271 126.11 64.9461 124.881L54.9941 116.625C54.0962 115.88 52.9178 115.565 51.7677 115.761L39.0211 117.935C37.1242 118.258 35.2659 117.185 34.5976 115.381L30.1069 103.255C29.7017 102.161 28.8391 101.298 27.745 100.893L15.6192 96.4024C13.8147 95.7341 12.7418 93.8758 13.0653 91.9789L15.2392 79.2323C15.4353 78.0822 15.1196 76.9038 14.3747 76.0059L6.11868 66.0539C4.89009 64.5729 4.89009 62.4271 6.11868 60.9461L14.3747 50.9941C15.1196 50.0962 15.4353 48.9178 15.2392 47.7677L13.0653 35.0211C12.7418 33.1242 13.8147 31.2659 15.6192 30.5976L27.745 26.1069C28.8391 25.7017 29.7017 24.8391 30.1069 23.745L34.5976 11.6192C35.2659 9.8147 37.1242 8.74176 39.0211 9.06526L51.7677 11.2392C52.9178 11.4353 54.0962 11.1196 54.9941 10.3747L64.9461 2.11868Z" fill="#F7D65E"/>
<circle cx="68" cy="64" r="39" fill="white" fill-opacity="0.74"/>
<path d="M65.6369 38.7729C66.2993 37.0759 68.7007 37.0759 69.3631 38.7729L74.5243 51.9949C74.8085 52.7231 75.491 53.2189 76.2714 53.2642L90.4412 54.087C92.2598 54.1926 93.0018 56.4764 91.5926 57.6308L80.6126 66.6252C80.0079 67.1206 79.7472 67.9229 79.9453 68.6791L83.5415 82.4096C84.0031 84.1718 82.0603 85.5833 80.527 84.5997L68.5798 76.9366C67.9218 76.5145 67.0782 76.5145 66.4202 76.9366L54.473 84.5997C52.9397 85.5833 50.9969 84.1718 51.4585 82.4096L55.0547 68.6791C55.2528 67.9229 54.9921 67.1206 54.3873 66.6252L43.4074 57.6308C41.9982 56.4764 42.7402 54.1926 44.5588 54.087L58.7286 53.2642C59.509 53.2189 60.1915 52.7231 60.4757 51.9949L65.6369 38.7729Z" fill="#F7D65E"/>
<path d="M166.371 -0.121817L37 145.961L162.967 148.839L166.371 -0.121817Z" fill="black" fill-opacity="0.14"/>
<path d="M-9.38213 105.317L118.388 -42.1677L-7.60276 -43.6724L-9.38213 105.317Z" fill="white" fill-opacity="0.21"/>
</g>
</g>
<defs>
<filter id="filter0_d_8_32" x="0.197266" y="1.19724" width="134.605" height="134.606" filterUnits="userSpaceOnUse" color-interpolation-filters="sRGB">
<feFlood flood-opacity="0" result="BackgroundImageFix"/>
<feColorMatrix in="SourceAlpha" type="matrix" values="0 0 0 0 0 0 0 0 0 0 0 0 0 0 0 0 0 0 127 0" result="hardAlpha"/>
<feOffset dy="5"/>
<feGaussianBlur stdDeviation="2.5"/>
<feComposite in2="hardAlpha" operator="out"/>
<feColorMatrix type="matrix" values="0 0 0 0 0 0 0 0 0 0 0 0 0 0 0 0 0 0 0.1 0"/>
<feBlend mode="normal" in2="BackgroundImageFix" result="effect1_dropShadow_8_32"/>
<feBlend mode="normal" in="SourceGraphic" in2="effect1_dropShadow_8_32" result="shape"/>
</filter>
</defs>
</svg>
